<?xml version="1.0" standalone="no"?>
<!DOCTYPE svg PUBLIC "-//W3C//DTD SVG 20010904//EN"
 "http://www.w3.org/TR/2001/REC-SVG-20010904/DTD/svg10.dtd">
<svg version="1.0" xmlns="http://www.w3.org/2000/svg"
 width="500.000000pt" height="500.000000pt" viewBox="0 0 500.000000 500.000000"
 preserveAspectRatio="xMidYMid meet">
<metadata>
Created by potrace 1.16, written by Peter Selinger 2001-2019
</metadata>
<g transform="translate(0.000000,500.000000) scale(0.100000,-0.100000)"
fill="#000000" stroke="none">
<path d="M810 2610 l0 -460 415 0 415 0 0 460 0 460 -415 0 -415 0 0 -460z
m606 301 c22 -10 50 -30 61 -45 44 -55 38 -156 -13 -211 -14 -15 -24 -28 -22
-29 2 -1 20 -9 41 -19 52 -24 77 -68 77 -140 0 -62 -14 -99 -52 -134 -48 -45
-87 -53 -253 -53 l-155 0 0 325 0 325 138 0 c112 0 145 -4 178 -19z"/>
<path d="M1250 2476 l0 -76 53 0 c70 0 97 19 97 69 0 51 -24 71 -94 78 l-56 6
0 -77z"/>
<path d="M1682 2533 c4 -170 14 -201 83 -237 57 -30 212 -30 269 0 66 34 80
74 84 242 l4 142 -70 0 -70 0 -4 -131 c-3 -123 -4 -132 -27 -150 -32 -26 -77
-24 -106 6 -24 23 -25 30 -25 150 l0 125 -71 0 -71 0 4 -147z"/>
<path d="M2150 2676 c0 -2 40 -75 90 -162 49 -87 90 -164 90 -170 0 -7 -30
-69 -66 -138 l-66 -126 80 0 79 0 81 158 c45 86 115 221 156 300 l75 143 -80
-3 -80 -3 -42 -92 c-23 -50 -45 -94 -49 -98 -3 -3 -30 39 -59 94 l-54 101 -77
0 c-43 0 -78 -2 -78 -4z"/>
<path d="M1060 1685 l0 -455 415 0 415 0 0 455 0 455 -415 0 -415 0 0 -455z
m677 -40 l132 -325 -83 0 -82 0 -23 65 -23 65 -123 0 -123 0 -24 -65 -23 -65
-82 0 -81 0 130 325 131 325 71 0 72 0 131 -325z"/>
<path d="M2342 1947 c-30 -32 -29 -81 3 -112 33 -34 70 -32 107 5 25 26 29 36
24 63 -12 65 -91 90 -134 44z"/>
<path d="M2135 1718 c-11 -6 -30 -20 -42 -31 l-23 -20 0 26 c0 27 -1 27 -70
27 l-70 0 0 -200 0 -200 70 0 70 0 0 121 0 121 30 30 c31 31 59 34 112 13 14
-5 23 5 45 50 24 48 25 57 13 65 -21 13 -111 12 -135 -2z"/>
<path d="M2330 1520 l0 -200 65 0 65 0 0 200 0 200 -65 0 -65 0 0 -200z"/>
</g>
</svg>
